<svg xmlns="http://www.w3.org/2000/svg" width="132.987" height="44.047" viewBox="0 0 132.987 44.047"><defs><style>.a{fill:#ffc709;font-size:35px;font-family:Roboto, font-weight: bold, Roboto;font-weight:700;letter-spacing:-0.039em;}</style></defs><g transform="translate(-90 -46)"><g transform="translate(-6 -217)"><path d="M40.1,37.025a7.96,7.96,0,0,1-3.5-.823v6.9h5.866a5.315,5.315,0,0,0,5.351-5.351V32.6A8.991,8.991,0,0,1,40.1,37.025Z" transform="translate(181.066 263.95)"/><path d="M30.834,33.761V21c-1.75,2.367-4.117,5.557-4.734,6.381C26.717,28.2,28.982,31.291,30.834,33.761Z" transform="translate(180.76 263.612)"/><path d="M43.532,0H5.351A5.315,5.315,0,0,0,0,5.351V38.7a5.315,5.315,0,0,0,5.351,5.351H31.594V37.666H26.757s-2.367-3.19-3.4-4.734c-1.132,1.544-3.4,4.734-3.4,4.734h-7.2s6.175-8.336,7.1-9.674c-.926-1.338-6.689-9.159-6.689-9.159h7.2s2.058,2.779,3.087,4.219c1.029-1.441,3.087-4.219,3.087-4.219h8.439s.617,1.132.823,1.647a8.843,8.843,0,0,1,5.454-1.955,9.121,9.121,0,0,1,7.718,4.425V5.351A5.469,5.469,0,0,0,43.532,0Z" transform="translate(180 263)"/><path d="M43.084,27.611c0-2.161-1.441-3.911-3.19-3.911-1.852,0-3.293,1.75-3.293,3.911s1.441,3.911,3.293,3.911C41.643,31.521,43.084,29.772,43.084,27.611Z" transform="translate(181.066 263.69)"/></g><text class="a" transform="translate(91 82)"><tspan x="0" y="0">Você</tspan></text></g></svg>